<?xml version="1.0" encoding="UTF-8"?>
<!-- Generated by Pixelmator Pro 3.7.1 -->
<svg width="132" height="132" viewBox="0 0 132 132" xmlns="http://www.w3.org/2000/svg">
    <path id="Path" fill="#fefefe" stroke="none" d="M 0 0 C 105.599998 0 211.199997 0 320 0 C 320 43.559998 320 87.120003 320 132 C 214.399994 132 108.800003 132 0 132 C 0 88.440002 0 44.880005 0 0 Z"/>
    <path id="path1" fill="#fcfcfd" stroke="none" d="M 0 0 C 11.385 -0.061874 22.77 -0.123749 34.5 -0.1875 C 39.841553 -0.22847 39.841553 -0.22847 45.291016 -0.270264 C 49.725586 -0.283813 49.725586 -0.283813 51.818237 -0.286331 C 53.243397 -0.290863 54.668545 -0.301254 56.093628 -0.316727 C 69.280998 -0.452484 83.390114 0.101273 95.25 6.5 C 95.903473 6.840393 96.556946 7.180786 97.230225 7.531494 C 113.565796 16.493828 125.118538 32.322418 130.476563 50.003906 C 134.845428 66.664284 131.564301 84.319855 123.371094 99.195313 C 113.549309 115.710548 97.225471 126.133858 78.995056 131.181763 C 71.843559 132.820877 64.517906 132.489609 57.226563 132.390625 C 55.751553 132.38472 54.276535 132.380661 52.801514 132.378418 C 47.409214 132.357681 42.017094 132.301834 36.625 132.25 C 24.53875 132.167496 12.4525 132.085007 0 132 C 0 88.440002 0 44.880005 0 0 Z"/>
    <path id="path2" fill="#2f6dc2" stroke="none" d="M 0 0 C 11.385 -0.061874 22.77 -0.123749 34.5 -0.1875 C 39.841553 -0.22847 39.841553 -0.22847 45.291016 -0.270264 C 49.725586 -0.283813 49.725586 -0.283813 51.818237 -0.286331 C 53.243397 -0.290863 54.668545 -0.301254 56.093628 -0.316727 C 69.280998 -0.452484 83.390114 0.101273 95.25 6.5 C 95.903473 6.840393 96.556946 7.180786 97.230225 7.531494 C 113.565796 16.493828 125.118538 32.322418 130.476563 50.003906 C 134.845428 66.664284 131.564301 84.319855 123.371094 99.195313 C 113.549309 115.710548 97.225471 126.133858 78.995056 131.181763 C 71.843559 132.820877 64.517906 132.489609 57.226563 132.390625 C 55.751553 132.38472 54.276535 132.380661 52.801514 132.378418 C 47.409214 132.357681 42.017094 132.301834 36.625 132.25 C 24.53875 132.167496 12.4525 132.085007 0 132 C 0 88.440002 0 44.880005 0 0 Z M 25.101563 29.355469 C 13.457094 44.008453 10.865962 58.648483 12.210938 76.855469 C 14.091042 89.661064 22.72554 100.957321 32.445313 109.03125 C 37.916092 113.078598 43.5415 115.887222 50 118 C 51.091835 118.35965 52.18367 118.719299 53.308594 119.089844 C 57.228363 120.056305 60.866779 120.30645 64.875 120.25 C 65.933159 120.238762 65.933159 120.238762 67.012695 120.227295 C 83.417557 119.889145 96.502312 112.942406 107.75 101.25 C 112.091187 96.28756 114.659271 91.119728 117 85 C 117.52787 83.787636 117.52787 83.787636 118.066406 82.550781 C 122.914284 69.305328 120.3722 54.078552 114.9375 41.550781 C 108.172356 28.090958 96.504013 19.513794 82.859375 13.945313 C 62.565044 7.235985 39.53442 13.951675 25.101563 29.355469 Z"/>
    <path id="path3" fill="#161616" stroke="none" d="M 19 43 C 33.52 43 48.040001 43 63 43 C 63 46.959999 63 50.919998 63 55 C 64.979996 55 66.959999 55 69 55 C 69 51.040001 69 47.080002 69 43 C 83.519997 43 98.040001 43 113 43 C 113 52.900002 113 62.800003 113 73 C 98.480003 73 83.959999 73 69 73 C 69 69.040001 69 65.080002 69 61 C 67.020004 61 65.040001 61 63 61 C 63 64.959999 63 68.919998 63 73 C 48.48 73 33.959999 73 19 73 C 19 63.099998 19 53.199997 19 43 Z"/>
    <path id="path4" fill="#fcfcfc" stroke="none" d="M 98.6875 22.1875 C 106.366455 28.623863 112.692352 35.424026 116 45 C 115.339996 45 114.68 45 114 45 C 114 53.910004 114 62.82 114 72 C 113.669998 72 113.339996 72 113 72 C 113 62.43 113 52.860001 113 43 C 98.480003 43 83.959999 43 69 43 C 69 46.959999 69 50.919998 69 55 C 67.020004 55 65.040001 55 63 55 C 63 51.040001 63 47.080002 63 43 C 48.48 43 33.959999 43 19 43 C 19 52.57 19 62.139999 19 72 C 18.669998 72 18.339996 72 18 72 C 17.974945 71.222855 17.94989 70.445709 17.924072 69.64502 C 17.808334 66.138168 17.685509 62.631607 17.5625 59.125 C 17.523186 57.90168 17.483864 56.67836 17.443359 55.417969 C 17.401466 54.251366 17.359573 53.084763 17.316406 51.882813 C 17.279747 50.804031 17.243088 49.725243 17.205322 48.61377 C 17.166237 46.019302 17.166237 46.019302 16 44 C 22.649719 29.096268 34.051178 20.065079 48.746094 13.835938 C 65.075768 8.516991 84.974854 12.022881 98.6875 22.1875 Z"/>
    <path id="path5" fill="#fcfdfd" stroke="none" d="M 0 0 C 19.139999 0 38.279999 0 58 0 C 54.755775 1.622116 52.556953 2.410355 49.125 3.1875 C 31.700037 7.897575 18.291132 18.529182 9 34 C 4.255193 42.89341 2.536551 52.156082 1 62 C 0.67 62 0.34 62 0 62 C 0 41.540001 0 21.080002 0 0 Z"/>
    <path id="path6" fill="#fcfdfe" stroke="none" d="M 0 71 C 0.33 71 0.66 71 1 71 C 1.135352 71.992577 1.270703 72.985153 1.410156 74.007813 C 3.523454 87.897415 8.560265 99.364281 18 110 C 18.507891 110.600708 19.015781 111.201401 19.539063 111.820313 C 27.965286 121.076706 40.312092 127.262421 52.4375 129.6875 C 53.67371 129.938873 54.909924 130.190231 56.183594 130.449219 C 57.113007 130.630981 58.042423 130.812729 59 131 C 59 131.330002 59 131.660004 59 132 C 39.529999 132 20.059999 132 0 132 C 0 111.869995 0 91.739998 0 71 Z"/>
    <path id="path7" fill="#f3f4f5" stroke="none" d="M 75 49 C 85.559998 49 96.120003 49 107 49 C 107 54.940002 107 60.879997 107 67 C 96.440002 67 85.879997 67 75 67 C 75 61.059998 75 55.120003 75 49 Z"/>
    <path id="path8" fill="#f3f3f4" stroke="none" d="M 25 49 C 35.560001 49 46.120003 49 57 49 C 57 54.940002 57 60.879997 57 67 C 46.440002 67 35.880001 67 25 67 C 25 61.059998 25 55.120003 25 49 Z"/>
    <path id="path9" fill="#2a69c0" stroke="none" d="M 38 84 C 48.889999 84 59.779999 84 71 84 C 71 87.630005 71 91.260002 71 95 C 60.110001 95 49.220001 95 38 95 C 38 91.369995 38 87.740005 38 84 Z"/>
    <path id="path10" fill="#0e0e0e" stroke="none" d="M 19 43 C 33.52 43 48.040001 43 63 43 C 62.669998 46.959999 62.34 50.919998 62 55 C 61.669998 55 61.34 55 61 55 C 61 51.699997 61 48.400002 61 45 C 47.470001 45 33.939999 45 20 45 C 20 53.580002 20 62.160004 20 71 C 33.529999 71 47.059998 71 61 71 C 61 68.029999 61 65.059998 61 62 C 61.330002 62 61.66 62 62 62 C 62 65.300003 62 68.599998 62 72 C 47.809998 72 33.619999 72 19 72 C 19 62.43 19 52.860001 19 43 Z"/>
    <path id="path11" fill="#2e6cc1" stroke="none" d="M 48.9375 52.6875 C 52 53 52 53 53.9375 54.1875 C 55 56 55 56 54.8125 58.5625 C 54 61 54 61 52 63 C 49 63.3125 49 63.3125 46 63 C 43.850842 59.77626 43.617134 58.732964 44 55 C 46 53 46 53 48.9375 52.6875 Z"/>
    <path id="path12" fill="#2a6ac0" stroke="none" d="M 82 52.75 C 85 53 85 53 87 55 C 87.25 58 87.25 58 87 61 C 85 63 85 63 82 63.25 C 79 63 79 63 77 61 C 76.75 58 76.75 58 77 55 C 79 53 79 53 82 52.75 Z"/>
</svg>
